<?xml version="1.0" encoding="utf-8" standalone="no"?>
<!DOCTYPE svg PUBLIC "-//W3C//DTD SVG 1.1//EN"
  "http://www.w3.org/Graphics/SVG/1.1/DTD/svg11.dtd">
<svg height="720pt" version="1.1" viewBox="0 0 720 720" width="720pt" xmlns="http://www.w3.org/2000/svg" xmlns:xlink="http://www.w3.org/1999/xlink">
 <metadata>
  <rdf:RDF xmlns:cc="http://creativecommons.org/ns#" xmlns:dc="http://purl.org/dc/elements/1.1/" xmlns:rdf="http://www.w3.org/1999/02/22-rdf-syntax-ns#">
   <cc:Work>
    <dc:type rdf:resource="http://purl.org/dc/dcmitype/StillImage"/>
    <dc:date>2022-03-24T15:08:14.444281</dc:date>
    <dc:format>image/svg+xml</dc:format>
    <dc:creator>
     <cc:Agent>
      <dc:title>Matplotlib v3.4.2, https://matplotlib.org/</dc:title>
     </cc:Agent>
    </dc:creator>
   </cc:Work>
  </rdf:RDF>
 </metadata>
 <defs>
  <style type="text/css">*{stroke-linecap:butt;stroke-linejoin:round;}</style>
 </defs>
 <g id="figure_1">
  <g id="patch_1">
   <path d="M 0 720 
L 720 720 
L 720 0 
L 0 0 
z
" style="fill:none;"/>
  </g>
  <g id="axes_1">
   <g id="patch_2">
    <path d="M 90 333.490909 
L 648 333.490909 
L 648 86.4 
L 90 86.4 
z
" style="fill:#ffffff;"/>
   </g>
   <g id="patch_3">
    <path clip-path="url(#pda5e5f0312)" d="M 115.363636 333.490909 
L 137.418972 333.490909 
L 137.418972 209.239481 
L 115.363636 209.239481 
z
" style="fill:#00224e;"/>
   </g>
   <g id="patch_4">
    <path clip-path="url(#pda5e5f0312)" d="M 225.640316 333.490909 
L 247.695652 333.490909 
L 247.695652 277.718961 
L 225.640316 277.718961 
z
" style="fill:#00224e;"/>
   </g>
   <g id="patch_5">
    <path clip-path="url(#pda5e5f0312)" d="M 335.916996 333.490909 
L 357.972332 333.490909 
L 357.972332 302.898701 
L 335.916996 302.898701 
z
" style="fill:#00224e;"/>
   </g>
   <g id="patch_6">
    <path clip-path="url(#pda5e5f0312)" d="M 446.193676 333.490909 
L 468.249012 333.490909 
L 468.249012 265.011429 
L 446.193676 265.011429 
z
" style="fill:#00224e;"/>
   </g>
   <g id="patch_7">
    <path clip-path="url(#pda5e5f0312)" d="M 556.470356 333.490909 
L 578.525692 333.490909 
L 578.525692 299.133506 
L 556.470356 299.133506 
z
" style="fill:#00224e;"/>
   </g>
   <g id="patch_8">
    <path clip-path="url(#pda5e5f0312)" d="M 137.418972 333.490909 
L 159.474308 333.490909 
L 159.474308 251.362597 
L 137.418972 251.362597 
z
" style="fill:#273e6e;"/>
   </g>
   <g id="patch_9">
    <path clip-path="url(#pda5e5f0312)" d="M 247.695652 333.490909 
L 269.750988 333.490909 
L 269.750988 98.166234 
L 247.695652 98.166234 
z
" style="fill:#273e6e;"/>
   </g>
   <g id="patch_10">
    <path clip-path="url(#pda5e5f0312)" d="M 357.972332 333.490909 
L 380.027668 333.490909 
L 380.027668 151.82026 
L 357.972332 151.82026 
z
" style="fill:#273e6e;"/>
   </g>
   <g id="patch_11">
    <path clip-path="url(#pda5e5f0312)" d="M 468.249012 333.490909 
L 490.304348 333.490909 
L 490.304348 273.953766 
L 468.249012 273.953766 
z
" style="fill:#273e6e;"/>
   </g>
   <g id="patch_12">
    <path clip-path="url(#pda5e5f0312)" d="M 578.525692 333.490909 
L 600.581028 333.490909 
L 600.581028 264.776104 
L 578.525692 264.776104 
z
" style="fill:#273e6e;"/>
   </g>
   <g id="patch_13">
    <path clip-path="url(#pda5e5f0312)" d="M 159.474308 333.490909 
L 181.529644 333.490909 
L 181.529644 319.136104 
L 159.474308 319.136104 
z
" style="fill:#535a6d;"/>
   </g>
   <g id="patch_14">
    <path clip-path="url(#pda5e5f0312)" d="M 269.750988 333.490909 
L 291.806324 333.490909 
L 291.806324 289.014545 
L 269.750988 289.014545 
z
" style="fill:#535a6d;"/>
   </g>
   <g id="patch_15">
    <path clip-path="url(#pda5e5f0312)" d="M 380.027668 333.490909 
L 402.083004 333.490909 
L 402.083004 317.253506 
L 380.027668 317.253506 
z
" style="fill:#535a6d;"/>
   </g>
   <g id="patch_16">
    <path clip-path="url(#pda5e5f0312)" d="M 490.304348 333.490909 
L 512.359684 333.490909 
L 512.359684 316.312208 
L 490.304348 316.312208 
z
" style="fill:#535a6d;"/>
   </g>
   <g id="patch_17">
    <path clip-path="url(#pda5e5f0312)" d="M 600.581028 333.490909 
L 622.636364 333.490909 
L 622.636364 332.784935 
L 600.581028 332.784935 
z
" style="fill:#535a6d;"/>
   </g>
   <g id="matplotlib.axis_1">
    <g id="xtick_1">
     <g id="line2d_1">
      <defs>
       <path d="M 0 0 
L 0 3.5 
" id="mda3e3193bf" style="stroke:#000000;stroke-width:0.8;"/>
      </defs>
      <g>
       <use style="stroke:#000000;stroke-width:0.8;" x="148.44664" xlink:href="#mda3e3193bf" y="333.490909"/>
      </g>
     </g>
    </g>
    <g id="xtick_2">
     <g id="line2d_2">
      <g>
       <use style="stroke:#000000;stroke-width:0.8;" x="258.72332" xlink:href="#mda3e3193bf" y="333.490909"/>
      </g>
     </g>
    </g>
    <g id="xtick_3">
     <g id="line2d_3">
      <g>
       <use style="stroke:#000000;stroke-width:0.8;" x="369" xlink:href="#mda3e3193bf" y="333.490909"/>
      </g>
     </g>
    </g>
    <g id="xtick_4">
     <g id="line2d_4">
      <g>
       <use style="stroke:#000000;stroke-width:0.8;" x="479.27668" xlink:href="#mda3e3193bf" y="333.490909"/>
      </g>
     </g>
    </g>
    <g id="xtick_5">
     <g id="line2d_5">
      <g>
       <use style="stroke:#000000;stroke-width:0.8;" x="589.55336" xlink:href="#mda3e3193bf" y="333.490909"/>
      </g>
     </g>
    </g>
   </g>
   <g id="matplotlib.axis_2">
    <g id="ytick_1">
     <g id="line2d_6">
      <path clip-path="url(#pda5e5f0312)" d="M 90 333.490909 
L 648 333.490909 
" style="fill:none;stroke:#b0b0b0;stroke-linecap:square;stroke-width:0.8;"/>
     </g>
     <g id="line2d_7">
      <defs>
       <path d="M 0 0 
L -3.5 0 
" id="mebded57211" style="stroke:#000000;stroke-width:0.8;"/>
      </defs>
      <g>
       <use style="stroke:#000000;stroke-width:0.8;" x="90" xlink:href="#mebded57211" y="333.490909"/>
      </g>
     </g>
     <g id="text_1">
      <!-- 0 -->
      <g transform="translate(76.6375 337.290128)scale(0.1 -0.1)">
       <defs>
        <path d="M 2034 4250 
Q 1547 4250 1301 3770 
Q 1056 3291 1056 2328 
Q 1056 1369 1301 889 
Q 1547 409 2034 409 
Q 2525 409 2770 889 
Q 3016 1369 3016 2328 
Q 3016 3291 2770 3770 
Q 2525 4250 2034 4250 
z
M 2034 4750 
Q 2819 4750 3233 4129 
Q 3647 3509 3647 2328 
Q 3647 1150 3233 529 
Q 2819 -91 2034 -91 
Q 1250 -91 836 529 
Q 422 1150 422 2328 
Q 422 3509 836 4129 
Q 1250 4750 2034 4750 
z
" id="DejaVuSans-30" transform="scale(0.015625)"/>
       </defs>
       <use xlink:href="#DejaVuSans-30"/>
      </g>
     </g>
    </g>
    <g id="ytick_2">
     <g id="line2d_8">
      <path clip-path="url(#pda5e5f0312)" d="M 90 286.425974 
L 648 286.425974 
" style="fill:none;stroke:#b0b0b0;stroke-linecap:square;stroke-width:0.8;"/>
     </g>
     <g id="line2d_9">
      <g>
       <use style="stroke:#000000;stroke-width:0.8;" x="90" xlink:href="#mebded57211" y="286.425974"/>
      </g>
     </g>
     <g id="text_2">
      <!-- 200 -->
      <g transform="translate(63.9125 290.225193)scale(0.1 -0.1)">
       <defs>
        <path d="M 1228 531 
L 3431 531 
L 3431 0 
L 469 0 
L 469 531 
Q 828 903 1448 1529 
Q 2069 2156 2228 2338 
Q 2531 2678 2651 2914 
Q 2772 3150 2772 3378 
Q 2772 3750 2511 3984 
Q 2250 4219 1831 4219 
Q 1534 4219 1204 4116 
Q 875 4013 500 3803 
L 500 4441 
Q 881 4594 1212 4672 
Q 1544 4750 1819 4750 
Q 2544 4750 2975 4387 
Q 3406 4025 3406 3419 
Q 3406 3131 3298 2873 
Q 3191 2616 2906 2266 
Q 2828 2175 2409 1742 
Q 1991 1309 1228 531 
z
" id="DejaVuSans-32" transform="scale(0.015625)"/>
       </defs>
       <use xlink:href="#DejaVuSans-32"/>
       <use x="63.623047" xlink:href="#DejaVuSans-30"/>
       <use x="127.246094" xlink:href="#DejaVuSans-30"/>
      </g>
     </g>
    </g>
    <g id="ytick_3">
     <g id="line2d_10">
      <path clip-path="url(#pda5e5f0312)" d="M 90 239.361039 
L 648 239.361039 
" style="fill:none;stroke:#b0b0b0;stroke-linecap:square;stroke-width:0.8;"/>
     </g>
     <g id="line2d_11">
      <g>
       <use style="stroke:#000000;stroke-width:0.8;" x="90" xlink:href="#mebded57211" y="239.361039"/>
      </g>
     </g>
     <g id="text_3">
      <!-- 400 -->
      <g transform="translate(63.9125 243.160258)scale(0.1 -0.1)">
       <defs>
        <path d="M 2419 4116 
L 825 1625 
L 2419 1625 
L 2419 4116 
z
M 2253 4666 
L 3047 4666 
L 3047 1625 
L 3713 1625 
L 3713 1100 
L 3047 1100 
L 3047 0 
L 2419 0 
L 2419 1100 
L 313 1100 
L 313 1709 
L 2253 4666 
z
" id="DejaVuSans-34" transform="scale(0.015625)"/>
       </defs>
       <use xlink:href="#DejaVuSans-34"/>
       <use x="63.623047" xlink:href="#DejaVuSans-30"/>
       <use x="127.246094" xlink:href="#DejaVuSans-30"/>
      </g>
     </g>
    </g>
    <g id="ytick_4">
     <g id="line2d_12">
      <path clip-path="url(#pda5e5f0312)" d="M 90 192.296104 
L 648 192.296104 
" style="fill:none;stroke:#b0b0b0;stroke-linecap:square;stroke-width:0.8;"/>
     </g>
     <g id="line2d_13">
      <g>
       <use style="stroke:#000000;stroke-width:0.8;" x="90" xlink:href="#mebded57211" y="192.296104"/>
      </g>
     </g>
     <g id="text_4">
      <!-- 600 -->
      <g transform="translate(63.9125 196.095323)scale(0.1 -0.1)">
       <defs>
        <path d="M 2113 2584 
Q 1688 2584 1439 2293 
Q 1191 2003 1191 1497 
Q 1191 994 1439 701 
Q 1688 409 2113 409 
Q 2538 409 2786 701 
Q 3034 994 3034 1497 
Q 3034 2003 2786 2293 
Q 2538 2584 2113 2584 
z
M 3366 4563 
L 3366 3988 
Q 3128 4100 2886 4159 
Q 2644 4219 2406 4219 
Q 1781 4219 1451 3797 
Q 1122 3375 1075 2522 
Q 1259 2794 1537 2939 
Q 1816 3084 2150 3084 
Q 2853 3084 3261 2657 
Q 3669 2231 3669 1497 
Q 3669 778 3244 343 
Q 2819 -91 2113 -91 
Q 1303 -91 875 529 
Q 447 1150 447 2328 
Q 447 3434 972 4092 
Q 1497 4750 2381 4750 
Q 2619 4750 2861 4703 
Q 3103 4656 3366 4563 
z
" id="DejaVuSans-36" transform="scale(0.015625)"/>
       </defs>
       <use xlink:href="#DejaVuSans-36"/>
       <use x="63.623047" xlink:href="#DejaVuSans-30"/>
       <use x="127.246094" xlink:href="#DejaVuSans-30"/>
      </g>
     </g>
    </g>
    <g id="ytick_5">
     <g id="line2d_14">
      <path clip-path="url(#pda5e5f0312)" d="M 90 145.231169 
L 648 145.231169 
" style="fill:none;stroke:#b0b0b0;stroke-linecap:square;stroke-width:0.8;"/>
     </g>
     <g id="line2d_15">
      <g>
       <use style="stroke:#000000;stroke-width:0.8;" x="90" xlink:href="#mebded57211" y="145.231169"/>
      </g>
     </g>
     <g id="text_5">
      <!-- 800 -->
      <g transform="translate(63.9125 149.030388)scale(0.1 -0.1)">
       <defs>
        <path d="M 2034 2216 
Q 1584 2216 1326 1975 
Q 1069 1734 1069 1313 
Q 1069 891 1326 650 
Q 1584 409 2034 409 
Q 2484 409 2743 651 
Q 3003 894 3003 1313 
Q 3003 1734 2745 1975 
Q 2488 2216 2034 2216 
z
M 1403 2484 
Q 997 2584 770 2862 
Q 544 3141 544 3541 
Q 544 4100 942 4425 
Q 1341 4750 2034 4750 
Q 2731 4750 3128 4425 
Q 3525 4100 3525 3541 
Q 3525 3141 3298 2862 
Q 3072 2584 2669 2484 
Q 3125 2378 3379 2068 
Q 3634 1759 3634 1313 
Q 3634 634 3220 271 
Q 2806 -91 2034 -91 
Q 1263 -91 848 271 
Q 434 634 434 1313 
Q 434 1759 690 2068 
Q 947 2378 1403 2484 
z
M 1172 3481 
Q 1172 3119 1398 2916 
Q 1625 2713 2034 2713 
Q 2441 2713 2670 2916 
Q 2900 3119 2900 3481 
Q 2900 3844 2670 4047 
Q 2441 4250 2034 4250 
Q 1625 4250 1398 4047 
Q 1172 3844 1172 3481 
z
" id="DejaVuSans-38" transform="scale(0.015625)"/>
       </defs>
       <use xlink:href="#DejaVuSans-38"/>
       <use x="63.623047" xlink:href="#DejaVuSans-30"/>
       <use x="127.246094" xlink:href="#DejaVuSans-30"/>
      </g>
     </g>
    </g>
    <g id="ytick_6">
     <g id="line2d_16">
      <path clip-path="url(#pda5e5f0312)" d="M 90 98.166234 
L 648 98.166234 
" style="fill:none;stroke:#b0b0b0;stroke-linecap:square;stroke-width:0.8;"/>
     </g>
     <g id="line2d_17">
      <g>
       <use style="stroke:#000000;stroke-width:0.8;" x="90" xlink:href="#mebded57211" y="98.166234"/>
      </g>
     </g>
     <g id="text_6">
      <!-- 1000 -->
      <g transform="translate(57.55 101.965453)scale(0.1 -0.1)">
       <defs>
        <path d="M 794 531 
L 1825 531 
L 1825 4091 
L 703 3866 
L 703 4441 
L 1819 4666 
L 2450 4666 
L 2450 531 
L 3481 531 
L 3481 0 
L 794 0 
L 794 531 
z
" id="DejaVuSans-31" transform="scale(0.015625)"/>
       </defs>
       <use xlink:href="#DejaVuSans-31"/>
       <use x="63.623047" xlink:href="#DejaVuSans-30"/>
       <use x="127.246094" xlink:href="#DejaVuSans-30"/>
       <use x="190.869141" xlink:href="#DejaVuSans-30"/>
      </g>
     </g>
    </g>
    <g id="text_7">
     <!-- Absolute number of pixels for most dominant tree species -->
     <g transform="translate(51.470312 355.236861)rotate(-90)scale(0.1 -0.1)">
      <defs>
       <path d="M 2188 4044 
L 1331 1722 
L 3047 1722 
L 2188 4044 
z
M 1831 4666 
L 2547 4666 
L 4325 0 
L 3669 0 
L 3244 1197 
L 1141 1197 
L 716 0 
L 50 0 
L 1831 4666 
z
" id="DejaVuSans-41" transform="scale(0.015625)"/>
       <path d="M 3116 1747 
Q 3116 2381 2855 2742 
Q 2594 3103 2138 3103 
Q 1681 3103 1420 2742 
Q 1159 2381 1159 1747 
Q 1159 1113 1420 752 
Q 1681 391 2138 391 
Q 2594 391 2855 752 
Q 3116 1113 3116 1747 
z
M 1159 2969 
Q 1341 3281 1617 3432 
Q 1894 3584 2278 3584 
Q 2916 3584 3314 3078 
Q 3713 2572 3713 1747 
Q 3713 922 3314 415 
Q 2916 -91 2278 -91 
Q 1894 -91 1617 61 
Q 1341 213 1159 525 
L 1159 0 
L 581 0 
L 581 4863 
L 1159 4863 
L 1159 2969 
z
" id="DejaVuSans-62" transform="scale(0.015625)"/>
       <path d="M 2834 3397 
L 2834 2853 
Q 2591 2978 2328 3040 
Q 2066 3103 1784 3103 
Q 1356 3103 1142 2972 
Q 928 2841 928 2578 
Q 928 2378 1081 2264 
Q 1234 2150 1697 2047 
L 1894 2003 
Q 2506 1872 2764 1633 
Q 3022 1394 3022 966 
Q 3022 478 2636 193 
Q 2250 -91 1575 -91 
Q 1294 -91 989 -36 
Q 684 19 347 128 
L 347 722 
Q 666 556 975 473 
Q 1284 391 1588 391 
Q 1994 391 2212 530 
Q 2431 669 2431 922 
Q 2431 1156 2273 1281 
Q 2116 1406 1581 1522 
L 1381 1569 
Q 847 1681 609 1914 
Q 372 2147 372 2553 
Q 372 3047 722 3315 
Q 1072 3584 1716 3584 
Q 2034 3584 2315 3537 
Q 2597 3491 2834 3397 
z
" id="DejaVuSans-73" transform="scale(0.015625)"/>
       <path d="M 1959 3097 
Q 1497 3097 1228 2736 
Q 959 2375 959 1747 
Q 959 1119 1226 758 
Q 1494 397 1959 397 
Q 2419 397 2687 759 
Q 2956 1122 2956 1747 
Q 2956 2369 2687 2733 
Q 2419 3097 1959 3097 
z
M 1959 3584 
Q 2709 3584 3137 3096 
Q 3566 2609 3566 1747 
Q 3566 888 3137 398 
Q 2709 -91 1959 -91 
Q 1206 -91 779 398 
Q 353 888 353 1747 
Q 353 2609 779 3096 
Q 1206 3584 1959 3584 
z
" id="DejaVuSans-6f" transform="scale(0.015625)"/>
       <path d="M 603 4863 
L 1178 4863 
L 1178 0 
L 603 0 
L 603 4863 
z
" id="DejaVuSans-6c" transform="scale(0.015625)"/>
       <path d="M 544 1381 
L 544 3500 
L 1119 3500 
L 1119 1403 
Q 1119 906 1312 657 
Q 1506 409 1894 409 
Q 2359 409 2629 706 
Q 2900 1003 2900 1516 
L 2900 3500 
L 3475 3500 
L 3475 0 
L 2900 0 
L 2900 538 
Q 2691 219 2414 64 
Q 2138 -91 1772 -91 
Q 1169 -91 856 284 
Q 544 659 544 1381 
z
M 1991 3584 
L 1991 3584 
z
" id="DejaVuSans-75" transform="scale(0.015625)"/>
       <path d="M 1172 4494 
L 1172 3500 
L 2356 3500 
L 2356 3053 
L 1172 3053 
L 1172 1153 
Q 1172 725 1289 603 
Q 1406 481 1766 481 
L 2356 481 
L 2356 0 
L 1766 0 
Q 1100 0 847 248 
Q 594 497 594 1153 
L 594 3053 
L 172 3053 
L 172 3500 
L 594 3500 
L 594 4494 
L 1172 4494 
z
" id="DejaVuSans-74" transform="scale(0.015625)"/>
       <path d="M 3597 1894 
L 3597 1613 
L 953 1613 
Q 991 1019 1311 708 
Q 1631 397 2203 397 
Q 2534 397 2845 478 
Q 3156 559 3463 722 
L 3463 178 
Q 3153 47 2828 -22 
Q 2503 -91 2169 -91 
Q 1331 -91 842 396 
Q 353 884 353 1716 
Q 353 2575 817 3079 
Q 1281 3584 2069 3584 
Q 2775 3584 3186 3129 
Q 3597 2675 3597 1894 
z
M 3022 2063 
Q 3016 2534 2758 2815 
Q 2500 3097 2075 3097 
Q 1594 3097 1305 2825 
Q 1016 2553 972 2059 
L 3022 2063 
z
" id="DejaVuSans-65" transform="scale(0.015625)"/>
       <path id="DejaVuSans-20" transform="scale(0.015625)"/>
       <path d="M 3513 2113 
L 3513 0 
L 2938 0 
L 2938 2094 
Q 2938 2591 2744 2837 
Q 2550 3084 2163 3084 
Q 1697 3084 1428 2787 
Q 1159 2491 1159 1978 
L 1159 0 
L 581 0 
L 581 3500 
L 1159 3500 
L 1159 2956 
Q 1366 3272 1645 3428 
Q 1925 3584 2291 3584 
Q 2894 3584 3203 3211 
Q 3513 2838 3513 2113 
z
" id="DejaVuSans-6e" transform="scale(0.015625)"/>
       <path d="M 3328 2828 
Q 3544 3216 3844 3400 
Q 4144 3584 4550 3584 
Q 5097 3584 5394 3201 
Q 5691 2819 5691 2113 
L 5691 0 
L 5113 0 
L 5113 2094 
Q 5113 2597 4934 2840 
Q 4756 3084 4391 3084 
Q 3944 3084 3684 2787 
Q 3425 2491 3425 1978 
L 3425 0 
L 2847 0 
L 2847 2094 
Q 2847 2600 2669 2842 
Q 2491 3084 2119 3084 
Q 1678 3084 1418 2786 
Q 1159 2488 1159 1978 
L 1159 0 
L 581 0 
L 581 3500 
L 1159 3500 
L 1159 2956 
Q 1356 3278 1631 3431 
Q 1906 3584 2284 3584 
Q 2666 3584 2933 3390 
Q 3200 3197 3328 2828 
z
" id="DejaVuSans-6d" transform="scale(0.015625)"/>
       <path d="M 2631 2963 
Q 2534 3019 2420 3045 
Q 2306 3072 2169 3072 
Q 1681 3072 1420 2755 
Q 1159 2438 1159 1844 
L 1159 0 
L 581 0 
L 581 3500 
L 1159 3500 
L 1159 2956 
Q 1341 3275 1631 3429 
Q 1922 3584 2338 3584 
Q 2397 3584 2469 3576 
Q 2541 3569 2628 3553 
L 2631 2963 
z
" id="DejaVuSans-72" transform="scale(0.015625)"/>
       <path d="M 2375 4863 
L 2375 4384 
L 1825 4384 
Q 1516 4384 1395 4259 
Q 1275 4134 1275 3809 
L 1275 3500 
L 2222 3500 
L 2222 3053 
L 1275 3053 
L 1275 0 
L 697 0 
L 697 3053 
L 147 3053 
L 147 3500 
L 697 3500 
L 697 3744 
Q 697 4328 969 4595 
Q 1241 4863 1831 4863 
L 2375 4863 
z
" id="DejaVuSans-66" transform="scale(0.015625)"/>
       <path d="M 1159 525 
L 1159 -1331 
L 581 -1331 
L 581 3500 
L 1159 3500 
L 1159 2969 
Q 1341 3281 1617 3432 
Q 1894 3584 2278 3584 
Q 2916 3584 3314 3078 
Q 3713 2572 3713 1747 
Q 3713 922 3314 415 
Q 2916 -91 2278 -91 
Q 1894 -91 1617 61 
Q 1341 213 1159 525 
z
M 3116 1747 
Q 3116 2381 2855 2742 
Q 2594 3103 2138 3103 
Q 1681 3103 1420 2742 
Q 1159 2381 1159 1747 
Q 1159 1113 1420 752 
Q 1681 391 2138 391 
Q 2594 391 2855 752 
Q 3116 1113 3116 1747 
z
" id="DejaVuSans-70" transform="scale(0.015625)"/>
       <path d="M 603 3500 
L 1178 3500 
L 1178 0 
L 603 0 
L 603 3500 
z
M 603 4863 
L 1178 4863 
L 1178 4134 
L 603 4134 
L 603 4863 
z
" id="DejaVuSans-69" transform="scale(0.015625)"/>
       <path d="M 3513 3500 
L 2247 1797 
L 3578 0 
L 2900 0 
L 1881 1375 
L 863 0 
L 184 0 
L 1544 1831 
L 300 3500 
L 978 3500 
L 1906 2253 
L 2834 3500 
L 3513 3500 
z
" id="DejaVuSans-78" transform="scale(0.015625)"/>
       <path d="M 2906 2969 
L 2906 4863 
L 3481 4863 
L 3481 0 
L 2906 0 
L 2906 525 
Q 2725 213 2448 61 
Q 2172 -91 1784 -91 
Q 1150 -91 751 415 
Q 353 922 353 1747 
Q 353 2572 751 3078 
Q 1150 3584 1784 3584 
Q 2172 3584 2448 3432 
Q 2725 3281 2906 2969 
z
M 947 1747 
Q 947 1113 1208 752 
Q 1469 391 1925 391 
Q 2381 391 2643 752 
Q 2906 1113 2906 1747 
Q 2906 2381 2643 2742 
Q 2381 3103 1925 3103 
Q 1469 3103 1208 2742 
Q 947 2381 947 1747 
z
" id="DejaVuSans-64" transform="scale(0.015625)"/>
       <path d="M 2194 1759 
Q 1497 1759 1228 1600 
Q 959 1441 959 1056 
Q 959 750 1161 570 
Q 1363 391 1709 391 
Q 2188 391 2477 730 
Q 2766 1069 2766 1631 
L 2766 1759 
L 2194 1759 
z
M 3341 1997 
L 3341 0 
L 2766 0 
L 2766 531 
Q 2569 213 2275 61 
Q 1981 -91 1556 -91 
Q 1019 -91 701 211 
Q 384 513 384 1019 
Q 384 1609 779 1909 
Q 1175 2209 1959 2209 
L 2766 2209 
L 2766 2266 
Q 2766 2663 2505 2880 
Q 2244 3097 1772 3097 
Q 1472 3097 1187 3025 
Q 903 2953 641 2809 
L 641 3341 
Q 956 3463 1253 3523 
Q 1550 3584 1831 3584 
Q 2591 3584 2966 3190 
Q 3341 2797 3341 1997 
z
" id="DejaVuSans-61" transform="scale(0.015625)"/>
       <path d="M 3122 3366 
L 3122 2828 
Q 2878 2963 2633 3030 
Q 2388 3097 2138 3097 
Q 1578 3097 1268 2742 
Q 959 2388 959 1747 
Q 959 1106 1268 751 
Q 1578 397 2138 397 
Q 2388 397 2633 464 
Q 2878 531 3122 666 
L 3122 134 
Q 2881 22 2623 -34 
Q 2366 -91 2075 -91 
Q 1284 -91 818 406 
Q 353 903 353 1747 
Q 353 2603 823 3093 
Q 1294 3584 2113 3584 
Q 2378 3584 2631 3529 
Q 2884 3475 3122 3366 
z
" id="DejaVuSans-63" transform="scale(0.015625)"/>
      </defs>
      <use xlink:href="#DejaVuSans-41"/>
      <use x="68.408203" xlink:href="#DejaVuSans-62"/>
      <use x="131.884766" xlink:href="#DejaVuSans-73"/>
      <use x="183.984375" xlink:href="#DejaVuSans-6f"/>
      <use x="245.166016" xlink:href="#DejaVuSans-6c"/>
      <use x="272.949219" xlink:href="#DejaVuSans-75"/>
      <use x="336.328125" xlink:href="#DejaVuSans-74"/>
      <use x="375.537109" xlink:href="#DejaVuSans-65"/>
      <use x="437.060547" xlink:href="#DejaVuSans-20"/>
      <use x="468.847656" xlink:href="#DejaVuSans-6e"/>
      <use x="532.226562" xlink:href="#DejaVuSans-75"/>
      <use x="595.605469" xlink:href="#DejaVuSans-6d"/>
      <use x="693.017578" xlink:href="#DejaVuSans-62"/>
      <use x="756.494141" xlink:href="#DejaVuSans-65"/>
      <use x="818.017578" xlink:href="#DejaVuSans-72"/>
      <use x="859.130859" xlink:href="#DejaVuSans-20"/>
      <use x="890.917969" xlink:href="#DejaVuSans-6f"/>
      <use x="952.099609" xlink:href="#DejaVuSans-66"/>
      <use x="987.304688" xlink:href="#DejaVuSans-20"/>
      <use x="1019.091797" xlink:href="#DejaVuSans-70"/>
      <use x="1082.568359" xlink:href="#DejaVuSans-69"/>
      <use x="1110.351562" xlink:href="#DejaVuSans-78"/>
      <use x="1166.40625" xlink:href="#DejaVuSans-65"/>
      <use x="1227.929688" xlink:href="#DejaVuSans-6c"/>
      <use x="1255.712891" xlink:href="#DejaVuSans-73"/>
      <use x="1307.8125" xlink:href="#DejaVuSans-20"/>
      <use x="1339.599609" xlink:href="#DejaVuSans-66"/>
      <use x="1374.804688" xlink:href="#DejaVuSans-6f"/>
      <use x="1435.986328" xlink:href="#DejaVuSans-72"/>
      <use x="1477.099609" xlink:href="#DejaVuSans-20"/>
      <use x="1508.886719" xlink:href="#DejaVuSans-6d"/>
      <use x="1606.298828" xlink:href="#DejaVuSans-6f"/>
      <use x="1667.480469" xlink:href="#DejaVuSans-73"/>
      <use x="1719.580078" xlink:href="#DejaVuSans-74"/>
      <use x="1758.789062" xlink:href="#DejaVuSans-20"/>
      <use x="1790.576172" xlink:href="#DejaVuSans-64"/>
      <use x="1854.052734" xlink:href="#DejaVuSans-6f"/>
      <use x="1915.234375" xlink:href="#DejaVuSans-6d"/>
      <use x="2012.646484" xlink:href="#DejaVuSans-69"/>
      <use x="2040.429688" xlink:href="#DejaVuSans-6e"/>
      <use x="2103.808594" xlink:href="#DejaVuSans-61"/>
      <use x="2165.087891" xlink:href="#DejaVuSans-6e"/>
      <use x="2228.466797" xlink:href="#DejaVuSans-74"/>
      <use x="2267.675781" xlink:href="#DejaVuSans-20"/>
      <use x="2299.462891" xlink:href="#DejaVuSans-74"/>
      <use x="2338.671875" xlink:href="#DejaVuSans-72"/>
      <use x="2377.535156" xlink:href="#DejaVuSans-65"/>
      <use x="2439.058594" xlink:href="#DejaVuSans-65"/>
      <use x="2500.582031" xlink:href="#DejaVuSans-20"/>
      <use x="2532.369141" xlink:href="#DejaVuSans-73"/>
      <use x="2584.46875" xlink:href="#DejaVuSans-70"/>
      <use x="2647.945312" xlink:href="#DejaVuSans-65"/>
      <use x="2709.46875" xlink:href="#DejaVuSans-63"/>
      <use x="2764.449219" xlink:href="#DejaVuSans-69"/>
      <use x="2792.232422" xlink:href="#DejaVuSans-65"/>
      <use x="2853.755859" xlink:href="#DejaVuSans-73"/>
     </g>
    </g>
   </g>
   <g id="patch_18">
    <path d="M 90 333.490909 
L 90 86.4 
" style="fill:none;stroke:#000000;stroke-linecap:square;stroke-linejoin:miter;stroke-width:0.8;"/>
   </g>
   <g id="patch_19">
    <path d="M 648 333.490909 
L 648 86.4 
" style="fill:none;stroke:#000000;stroke-linecap:square;stroke-linejoin:miter;stroke-width:0.8;"/>
   </g>
   <g id="patch_20">
    <path d="M 90 333.490909 
L 648 333.490909 
" style="fill:none;stroke:#000000;stroke-linecap:square;stroke-linejoin:miter;stroke-width:0.8;"/>
   </g>
   <g id="patch_21">
    <path d="M 90 86.4 
L 648 86.4 
" style="fill:none;stroke:#000000;stroke-linecap:square;stroke-linejoin:miter;stroke-width:0.8;"/>
   </g>
   <g id="legend_1">
    <g id="patch_22">
     <path d="M 521.926563 138.434375 
L 641 138.434375 
Q 643 138.434375 643 136.434375 
L 643 93.4 
Q 643 91.4 641 91.4 
L 521.926563 91.4 
Q 519.926563 91.4 519.926563 93.4 
L 519.926563 136.434375 
Q 519.926563 138.434375 521.926563 138.434375 
z
" style="fill:#ffffff;opacity:0.8;stroke:#cccccc;stroke-linejoin:miter;"/>
    </g>
    <g id="patch_23">
     <path d="M 523.926563 102.998438 
L 543.926563 102.998438 
L 543.926563 95.998438 
L 523.926563 95.998438 
z
" style="fill:#00224e;"/>
    </g>
    <g id="text_8">
     <!-- Area of Interest 0 -->
     <g transform="translate(551.926563 102.998438)scale(0.1 -0.1)">
      <defs>
       <path d="M 628 4666 
L 1259 4666 
L 1259 0 
L 628 0 
L 628 4666 
z
" id="DejaVuSans-49" transform="scale(0.015625)"/>
      </defs>
      <use xlink:href="#DejaVuSans-41"/>
      <use x="68.408203" xlink:href="#DejaVuSans-72"/>
      <use x="107.271484" xlink:href="#DejaVuSans-65"/>
      <use x="168.794922" xlink:href="#DejaVuSans-61"/>
      <use x="230.074219" xlink:href="#DejaVuSans-20"/>
      <use x="261.861328" xlink:href="#DejaVuSans-6f"/>
      <use x="323.042969" xlink:href="#DejaVuSans-66"/>
      <use x="358.248047" xlink:href="#DejaVuSans-20"/>
      <use x="390.035156" xlink:href="#DejaVuSans-49"/>
      <use x="419.527344" xlink:href="#DejaVuSans-6e"/>
      <use x="482.90625" xlink:href="#DejaVuSans-74"/>
      <use x="522.115234" xlink:href="#DejaVuSans-65"/>
      <use x="583.638672" xlink:href="#DejaVuSans-72"/>
      <use x="622.501953" xlink:href="#DejaVuSans-65"/>
      <use x="684.025391" xlink:href="#DejaVuSans-73"/>
      <use x="736.125" xlink:href="#DejaVuSans-74"/>
      <use x="775.333984" xlink:href="#DejaVuSans-20"/>
      <use x="807.121094" xlink:href="#DejaVuSans-30"/>
     </g>
    </g>
    <g id="patch_24">
     <path d="M 523.926563 117.676563 
L 543.926563 117.676563 
L 543.926563 110.676563 
L 523.926563 110.676563 
z
" style="fill:#273e6e;"/>
    </g>
    <g id="text_9">
     <!-- Area of Interest 1 -->
     <g transform="translate(551.926563 117.676563)scale(0.1 -0.1)">
      <use xlink:href="#DejaVuSans-41"/>
      <use x="68.408203" xlink:href="#DejaVuSans-72"/>
      <use x="107.271484" xlink:href="#DejaVuSans-65"/>
      <use x="168.794922" xlink:href="#DejaVuSans-61"/>
      <use x="230.074219" xlink:href="#DejaVuSans-20"/>
      <use x="261.861328" xlink:href="#DejaVuSans-6f"/>
      <use x="323.042969" xlink:href="#DejaVuSans-66"/>
      <use x="358.248047" xlink:href="#DejaVuSans-20"/>
      <use x="390.035156" xlink:href="#DejaVuSans-49"/>
      <use x="419.527344" xlink:href="#DejaVuSans-6e"/>
      <use x="482.90625" xlink:href="#DejaVuSans-74"/>
      <use x="522.115234" xlink:href="#DejaVuSans-65"/>
      <use x="583.638672" xlink:href="#DejaVuSans-72"/>
      <use x="622.501953" xlink:href="#DejaVuSans-65"/>
      <use x="684.025391" xlink:href="#DejaVuSans-73"/>
      <use x="736.125" xlink:href="#DejaVuSans-74"/>
      <use x="775.333984" xlink:href="#DejaVuSans-20"/>
      <use x="807.121094" xlink:href="#DejaVuSans-31"/>
     </g>
    </g>
    <g id="patch_25">
     <path d="M 523.926563 132.354688 
L 543.926563 132.354688 
L 543.926563 125.354688 
L 523.926563 125.354688 
z
" style="fill:#535a6d;"/>
    </g>
    <g id="text_10">
     <!-- Area of Interest 2 -->
     <g transform="translate(551.926563 132.354688)scale(0.1 -0.1)">
      <use xlink:href="#DejaVuSans-41"/>
      <use x="68.408203" xlink:href="#DejaVuSans-72"/>
      <use x="107.271484" xlink:href="#DejaVuSans-65"/>
      <use x="168.794922" xlink:href="#DejaVuSans-61"/>
      <use x="230.074219" xlink:href="#DejaVuSans-20"/>
      <use x="261.861328" xlink:href="#DejaVuSans-6f"/>
      <use x="323.042969" xlink:href="#DejaVuSans-66"/>
      <use x="358.248047" xlink:href="#DejaVuSans-20"/>
      <use x="390.035156" xlink:href="#DejaVuSans-49"/>
      <use x="419.527344" xlink:href="#DejaVuSans-6e"/>
      <use x="482.90625" xlink:href="#DejaVuSans-74"/>
      <use x="522.115234" xlink:href="#DejaVuSans-65"/>
      <use x="583.638672" xlink:href="#DejaVuSans-72"/>
      <use x="622.501953" xlink:href="#DejaVuSans-65"/>
      <use x="684.025391" xlink:href="#DejaVuSans-73"/>
      <use x="736.125" xlink:href="#DejaVuSans-74"/>
      <use x="775.333984" xlink:href="#DejaVuSans-20"/>
      <use x="807.121094" xlink:href="#DejaVuSans-32"/>
     </g>
    </g>
   </g>
  </g>
  <g id="axes_2">
   <g id="patch_26">
    <path d="M 90 630 
L 648 630 
L 648 382.909091 
L 90 382.909091 
z
" style="fill:#ffffff;"/>
   </g>
   <g id="patch_27">
    <path clip-path="url(#pabf45ffd75)" d="M 115.363636 630 
L 137.418972 630 
L 137.418972 470.348232 
L 115.363636 470.348232 
z
" style="fill:#00224e;"/>
   </g>
   <g id="patch_28">
    <path clip-path="url(#pabf45ffd75)" d="M 225.640316 630 
L 247.695652 630 
L 247.695652 600.325018 
L 225.640316 600.325018 
z
" style="fill:#00224e;"/>
   </g>
   <g id="patch_29">
    <path clip-path="url(#pabf45ffd75)" d="M 335.916996 630 
L 357.972332 630 
L 357.972332 619.162499 
L 335.916996 619.162499 
z
" style="fill:#00224e;"/>
   </g>
   <g id="patch_30">
    <path clip-path="url(#pabf45ffd75)" d="M 446.193676 630 
L 468.249012 630 
L 468.249012 564.114584 
L 446.193676 564.114584 
z
" style="fill:#00224e;"/>
   </g>
   <g id="patch_31">
    <path clip-path="url(#pabf45ffd75)" d="M 556.470356 630 
L 578.525692 630 
L 578.525692 613.670522 
L 556.470356 613.670522 
z
" style="fill:#00224e;"/>
   </g>
   <g id="patch_32">
    <path clip-path="url(#pabf45ffd75)" d="M 137.418972 630 
L 159.474308 630 
L 159.474308 612.768129 
L 137.418972 612.768129 
z
" style="fill:#273e6e;"/>
   </g>
   <g id="patch_33">
    <path clip-path="url(#pabf45ffd75)" d="M 247.695652 630 
L 269.750988 630 
L 269.750988 488.129753 
L 247.695652 488.129753 
z
" style="fill:#273e6e;"/>
   </g>
   <g id="patch_34">
    <path clip-path="url(#pabf45ffd75)" d="M 357.972332 630 
L 380.027668 630 
L 380.027668 572.651896 
L 357.972332 572.651896 
z
" style="fill:#273e6e;"/>
   </g>
   <g id="patch_35">
    <path clip-path="url(#pabf45ffd75)" d="M 468.249012 630 
L 490.304348 630 
L 490.304348 619.445022 
L 468.249012 619.445022 
z
" style="fill:#273e6e;"/>
   </g>
   <g id="patch_36">
    <path clip-path="url(#pabf45ffd75)" d="M 578.525692 630 
L 600.581028 630 
L 600.581028 618.283426 
L 578.525692 618.283426 
z
" style="fill:#273e6e;"/>
   </g>
   <g id="patch_37">
    <path clip-path="url(#pabf45ffd75)" d="M 159.474308 630 
L 181.529644 630 
L 181.529644 608.825718 
L 159.474308 608.825718 
z
" style="fill:#535a6d;"/>
   </g>
   <g id="patch_38">
    <path clip-path="url(#pabf45ffd75)" d="M 269.750988 630 
L 291.806324 630 
L 291.806324 394.675325 
L 269.750988 394.675325 
z
" style="fill:#535a6d;"/>
   </g>
   <g id="patch_39">
    <path clip-path="url(#pabf45ffd75)" d="M 380.027668 630 
L 402.083004 630 
L 402.083004 604.689634 
L 380.027668 604.689634 
z
" style="fill:#535a6d;"/>
   </g>
   <g id="patch_40">
    <path clip-path="url(#pabf45ffd75)" d="M 490.304348 630 
L 512.359684 630 
L 512.359684 608.270124 
L 490.304348 608.270124 
z
" style="fill:#535a6d;"/>
   </g>
   <g id="patch_41">
    <path clip-path="url(#pabf45ffd75)" d="M 600.581028 630 
L 622.636364 630 
L 622.636364 629.506139 
L 600.581028 629.506139 
z
" style="fill:#535a6d;"/>
   </g>
   <g id="matplotlib.axis_3">
    <g id="xtick_6">
     <g id="line2d_18">
      <g>
       <use style="stroke:#000000;stroke-width:0.8;" x="148.44664" xlink:href="#mda3e3193bf" y="630"/>
      </g>
     </g>
     <g id="text_11">
      <!-- No Trees -->
      <g transform="translate(127.04039 644.598437)scale(0.1 -0.1)">
       <defs>
        <path d="M 628 4666 
L 1478 4666 
L 3547 763 
L 3547 4666 
L 4159 4666 
L 4159 0 
L 3309 0 
L 1241 3903 
L 1241 0 
L 628 0 
L 628 4666 
z
" id="DejaVuSans-4e" transform="scale(0.015625)"/>
        <path d="M -19 4666 
L 3928 4666 
L 3928 4134 
L 2272 4134 
L 2272 0 
L 1638 0 
L 1638 4134 
L -19 4134 
L -19 4666 
z
" id="DejaVuSans-54" transform="scale(0.015625)"/>
       </defs>
       <use xlink:href="#DejaVuSans-4e"/>
       <use x="74.804688" xlink:href="#DejaVuSans-6f"/>
       <use x="135.986328" xlink:href="#DejaVuSans-20"/>
       <use x="167.773438" xlink:href="#DejaVuSans-54"/>
       <use x="214.107422" xlink:href="#DejaVuSans-72"/>
       <use x="252.970703" xlink:href="#DejaVuSans-65"/>
       <use x="314.494141" xlink:href="#DejaVuSans-65"/>
       <use x="376.017578" xlink:href="#DejaVuSans-73"/>
      </g>
     </g>
    </g>
    <g id="xtick_7">
     <g id="line2d_19">
      <g>
       <use style="stroke:#000000;stroke-width:0.8;" x="258.72332" xlink:href="#mda3e3193bf" y="630"/>
      </g>
     </g>
     <g id="text_12">
      <!-- White Spruce -->
      <g transform="translate(225.197539 644.598437)scale(0.1 -0.1)">
       <defs>
        <path d="M 213 4666 
L 850 4666 
L 1831 722 
L 2809 4666 
L 3519 4666 
L 4500 722 
L 5478 4666 
L 6119 4666 
L 4947 0 
L 4153 0 
L 3169 4050 
L 2175 0 
L 1381 0 
L 213 4666 
z
" id="DejaVuSans-57" transform="scale(0.015625)"/>
        <path d="M 3513 2113 
L 3513 0 
L 2938 0 
L 2938 2094 
Q 2938 2591 2744 2837 
Q 2550 3084 2163 3084 
Q 1697 3084 1428 2787 
Q 1159 2491 1159 1978 
L 1159 0 
L 581 0 
L 581 4863 
L 1159 4863 
L 1159 2956 
Q 1366 3272 1645 3428 
Q 1925 3584 2291 3584 
Q 2894 3584 3203 3211 
Q 3513 2838 3513 2113 
z
" id="DejaVuSans-68" transform="scale(0.015625)"/>
        <path d="M 3425 4513 
L 3425 3897 
Q 3066 4069 2747 4153 
Q 2428 4238 2131 4238 
Q 1616 4238 1336 4038 
Q 1056 3838 1056 3469 
Q 1056 3159 1242 3001 
Q 1428 2844 1947 2747 
L 2328 2669 
Q 3034 2534 3370 2195 
Q 3706 1856 3706 1288 
Q 3706 609 3251 259 
Q 2797 -91 1919 -91 
Q 1588 -91 1214 -16 
Q 841 59 441 206 
L 441 856 
Q 825 641 1194 531 
Q 1563 422 1919 422 
Q 2459 422 2753 634 
Q 3047 847 3047 1241 
Q 3047 1584 2836 1778 
Q 2625 1972 2144 2069 
L 1759 2144 
Q 1053 2284 737 2584 
Q 422 2884 422 3419 
Q 422 4038 858 4394 
Q 1294 4750 2059 4750 
Q 2388 4750 2728 4690 
Q 3069 4631 3425 4513 
z
" id="DejaVuSans-53" transform="scale(0.015625)"/>
       </defs>
       <use xlink:href="#DejaVuSans-57"/>
       <use x="98.876953" xlink:href="#DejaVuSans-68"/>
       <use x="162.255859" xlink:href="#DejaVuSans-69"/>
       <use x="190.039062" xlink:href="#DejaVuSans-74"/>
       <use x="229.248047" xlink:href="#DejaVuSans-65"/>
       <use x="290.771484" xlink:href="#DejaVuSans-20"/>
       <use x="322.558594" xlink:href="#DejaVuSans-53"/>
       <use x="386.035156" xlink:href="#DejaVuSans-70"/>
       <use x="449.511719" xlink:href="#DejaVuSans-72"/>
       <use x="490.625" xlink:href="#DejaVuSans-75"/>
       <use x="554.003906" xlink:href="#DejaVuSans-63"/>
       <use x="608.984375" xlink:href="#DejaVuSans-65"/>
      </g>
     </g>
    </g>
    <g id="xtick_8">
     <g id="line2d_20">
      <g>
       <use style="stroke:#000000;stroke-width:0.8;" x="369" xlink:href="#mda3e3193bf" y="630"/>
      </g>
     </g>
     <g id="text_13">
      <!-- Black Spruce -->
      <g transform="translate(336.484375 644.598437)scale(0.1 -0.1)">
       <defs>
        <path d="M 1259 2228 
L 1259 519 
L 2272 519 
Q 2781 519 3026 730 
Q 3272 941 3272 1375 
Q 3272 1813 3026 2020 
Q 2781 2228 2272 2228 
L 1259 2228 
z
M 1259 4147 
L 1259 2741 
L 2194 2741 
Q 2656 2741 2882 2914 
Q 3109 3088 3109 3444 
Q 3109 3797 2882 3972 
Q 2656 4147 2194 4147 
L 1259 4147 
z
M 628 4666 
L 2241 4666 
Q 2963 4666 3353 4366 
Q 3744 4066 3744 3513 
Q 3744 3084 3544 2831 
Q 3344 2578 2956 2516 
Q 3422 2416 3680 2098 
Q 3938 1781 3938 1306 
Q 3938 681 3513 340 
Q 3088 0 2303 0 
L 628 0 
L 628 4666 
z
" id="DejaVuSans-42" transform="scale(0.015625)"/>
        <path d="M 581 4863 
L 1159 4863 
L 1159 1991 
L 2875 3500 
L 3609 3500 
L 1753 1863 
L 3688 0 
L 2938 0 
L 1159 1709 
L 1159 0 
L 581 0 
L 581 4863 
z
" id="DejaVuSans-6b" transform="scale(0.015625)"/>
       </defs>
       <use xlink:href="#DejaVuSans-42"/>
       <use x="68.603516" xlink:href="#DejaVuSans-6c"/>
       <use x="96.386719" xlink:href="#DejaVuSans-61"/>
       <use x="157.666016" xlink:href="#DejaVuSans-63"/>
       <use x="212.646484" xlink:href="#DejaVuSans-6b"/>
       <use x="270.556641" xlink:href="#DejaVuSans-20"/>
       <use x="302.34375" xlink:href="#DejaVuSans-53"/>
       <use x="365.820312" xlink:href="#DejaVuSans-70"/>
       <use x="429.296875" xlink:href="#DejaVuSans-72"/>
       <use x="470.410156" xlink:href="#DejaVuSans-75"/>
       <use x="533.789062" xlink:href="#DejaVuSans-63"/>
       <use x="588.769531" xlink:href="#DejaVuSans-65"/>
      </g>
     </g>
    </g>
    <g id="xtick_9">
     <g id="line2d_21">
      <g>
       <use style="stroke:#000000;stroke-width:0.8;" x="479.27668" xlink:href="#mda3e3193bf" y="630"/>
      </g>
     </g>
     <g id="text_14">
      <!-- Lodgepole Pine -->
      <g transform="translate(441.268867 644.598437)scale(0.1 -0.1)">
       <defs>
        <path d="M 628 4666 
L 1259 4666 
L 1259 531 
L 3531 531 
L 3531 0 
L 628 0 
L 628 4666 
z
" id="DejaVuSans-4c" transform="scale(0.015625)"/>
        <path d="M 2906 1791 
Q 2906 2416 2648 2759 
Q 2391 3103 1925 3103 
Q 1463 3103 1205 2759 
Q 947 2416 947 1791 
Q 947 1169 1205 825 
Q 1463 481 1925 481 
Q 2391 481 2648 825 
Q 2906 1169 2906 1791 
z
M 3481 434 
Q 3481 -459 3084 -895 
Q 2688 -1331 1869 -1331 
Q 1566 -1331 1297 -1286 
Q 1028 -1241 775 -1147 
L 775 -588 
Q 1028 -725 1275 -790 
Q 1522 -856 1778 -856 
Q 2344 -856 2625 -561 
Q 2906 -266 2906 331 
L 2906 616 
Q 2728 306 2450 153 
Q 2172 0 1784 0 
Q 1141 0 747 490 
Q 353 981 353 1791 
Q 353 2603 747 3093 
Q 1141 3584 1784 3584 
Q 2172 3584 2450 3431 
Q 2728 3278 2906 2969 
L 2906 3500 
L 3481 3500 
L 3481 434 
z
" id="DejaVuSans-67" transform="scale(0.015625)"/>
        <path d="M 1259 4147 
L 1259 2394 
L 2053 2394 
Q 2494 2394 2734 2622 
Q 2975 2850 2975 3272 
Q 2975 3691 2734 3919 
Q 2494 4147 2053 4147 
L 1259 4147 
z
M 628 4666 
L 2053 4666 
Q 2838 4666 3239 4311 
Q 3641 3956 3641 3272 
Q 3641 2581 3239 2228 
Q 2838 1875 2053 1875 
L 1259 1875 
L 1259 0 
L 628 0 
L 628 4666 
z
" id="DejaVuSans-50" transform="scale(0.015625)"/>
       </defs>
       <use xlink:href="#DejaVuSans-4c"/>
       <use x="53.962891" xlink:href="#DejaVuSans-6f"/>
       <use x="115.144531" xlink:href="#DejaVuSans-64"/>
       <use x="178.621094" xlink:href="#DejaVuSans-67"/>
       <use x="242.097656" xlink:href="#DejaVuSans-65"/>
       <use x="303.621094" xlink:href="#DejaVuSans-70"/>
       <use x="367.097656" xlink:href="#DejaVuSans-6f"/>
       <use x="428.279297" xlink:href="#DejaVuSans-6c"/>
       <use x="456.0625" xlink:href="#DejaVuSans-65"/>
       <use x="517.585938" xlink:href="#DejaVuSans-20"/>
       <use x="549.373047" xlink:href="#DejaVuSans-50"/>
       <use x="607.425781" xlink:href="#DejaVuSans-69"/>
       <use x="635.208984" xlink:href="#DejaVuSans-6e"/>
       <use x="698.587891" xlink:href="#DejaVuSans-65"/>
      </g>
     </g>
    </g>
    <g id="xtick_10">
     <g id="line2d_22">
      <g>
       <use style="stroke:#000000;stroke-width:0.8;" x="589.55336" xlink:href="#mda3e3193bf" y="630"/>
      </g>
     </g>
     <g id="text_15">
      <!-- Trembling Aspen -->
      <g transform="translate(548.018203 644.598437)scale(0.1 -0.1)">
       <use xlink:href="#DejaVuSans-54"/>
       <use x="46.333984" xlink:href="#DejaVuSans-72"/>
       <use x="85.197266" xlink:href="#DejaVuSans-65"/>
       <use x="146.720703" xlink:href="#DejaVuSans-6d"/>
       <use x="244.132812" xlink:href="#DejaVuSans-62"/>
       <use x="307.609375" xlink:href="#DejaVuSans-6c"/>
       <use x="335.392578" xlink:href="#DejaVuSans-69"/>
       <use x="363.175781" xlink:href="#DejaVuSans-6e"/>
       <use x="426.554688" xlink:href="#DejaVuSans-67"/>
       <use x="490.03125" xlink:href="#DejaVuSans-20"/>
       <use x="521.818359" xlink:href="#DejaVuSans-41"/>
       <use x="590.226562" xlink:href="#DejaVuSans-73"/>
       <use x="642.326172" xlink:href="#DejaVuSans-70"/>
       <use x="705.802734" xlink:href="#DejaVuSans-65"/>
       <use x="767.326172" xlink:href="#DejaVuSans-6e"/>
      </g>
     </g>
    </g>
    <g id="text_16">
     <!-- Most dominant species -->
     <g transform="translate(311.353906 658.276562)scale(0.1 -0.1)">
      <defs>
       <path d="M 628 4666 
L 1569 4666 
L 2759 1491 
L 3956 4666 
L 4897 4666 
L 4897 0 
L 4281 0 
L 4281 4097 
L 3078 897 
L 2444 897 
L 1241 4097 
L 1241 0 
L 628 0 
L 628 4666 
z
" id="DejaVuSans-4d" transform="scale(0.015625)"/>
      </defs>
      <use xlink:href="#DejaVuSans-4d"/>
      <use x="86.279297" xlink:href="#DejaVuSans-6f"/>
      <use x="147.460938" xlink:href="#DejaVuSans-73"/>
      <use x="199.560547" xlink:href="#DejaVuSans-74"/>
      <use x="238.769531" xlink:href="#DejaVuSans-20"/>
      <use x="270.556641" xlink:href="#DejaVuSans-64"/>
      <use x="334.033203" xlink:href="#DejaVuSans-6f"/>
      <use x="395.214844" xlink:href="#DejaVuSans-6d"/>
      <use x="492.626953" xlink:href="#DejaVuSans-69"/>
      <use x="520.410156" xlink:href="#DejaVuSans-6e"/>
      <use x="583.789062" xlink:href="#DejaVuSans-61"/>
      <use x="645.068359" xlink:href="#DejaVuSans-6e"/>
      <use x="708.447266" xlink:href="#DejaVuSans-74"/>
      <use x="747.65625" xlink:href="#DejaVuSans-20"/>
      <use x="779.443359" xlink:href="#DejaVuSans-73"/>
      <use x="831.542969" xlink:href="#DejaVuSans-70"/>
      <use x="895.019531" xlink:href="#DejaVuSans-65"/>
      <use x="956.542969" xlink:href="#DejaVuSans-63"/>
      <use x="1011.523438" xlink:href="#DejaVuSans-69"/>
      <use x="1039.306641" xlink:href="#DejaVuSans-65"/>
      <use x="1100.830078" xlink:href="#DejaVuSans-73"/>
     </g>
    </g>
   </g>
   <g id="matplotlib.axis_4">
    <g id="ytick_7">
     <g id="line2d_23">
      <path clip-path="url(#pabf45ffd75)" d="M 90 630 
L 648 630 
" style="fill:none;stroke:#b0b0b0;stroke-linecap:square;stroke-width:0.8;"/>
     </g>
     <g id="line2d_24">
      <g>
       <use style="stroke:#000000;stroke-width:0.8;" x="90" xlink:href="#mebded57211" y="630"/>
      </g>
     </g>
     <g id="text_17">
      <!-- 0 -->
      <g transform="translate(76.6375 633.799219)scale(0.1 -0.1)">
       <use xlink:href="#DejaVuSans-30"/>
      </g>
     </g>
    </g>
    <g id="ytick_8">
     <g id="line2d_25">
      <path clip-path="url(#pabf45ffd75)" d="M 90 581.231245 
L 648 581.231245 
" style="fill:none;stroke:#b0b0b0;stroke-linecap:square;stroke-width:0.8;"/>
     </g>
     <g id="line2d_26">
      <g>
       <use style="stroke:#000000;stroke-width:0.8;" x="90" xlink:href="#mebded57211" y="581.231245"/>
      </g>
     </g>
     <g id="text_18">
      <!-- 2 -->
      <g transform="translate(76.6375 585.030464)scale(0.1 -0.1)">
       <use xlink:href="#DejaVuSans-32"/>
      </g>
     </g>
    </g>
    <g id="ytick_9">
     <g id="line2d_27">
      <path clip-path="url(#pabf45ffd75)" d="M 90 532.46249 
L 648 532.46249 
" style="fill:none;stroke:#b0b0b0;stroke-linecap:square;stroke-width:0.8;"/>
     </g>
     <g id="line2d_28">
      <g>
       <use style="stroke:#000000;stroke-width:0.8;" x="90" xlink:href="#mebded57211" y="532.46249"/>
      </g>
     </g>
     <g id="text_19">
      <!-- 4 -->
      <g transform="translate(76.6375 536.261709)scale(0.1 -0.1)">
       <use xlink:href="#DejaVuSans-34"/>
      </g>
     </g>
    </g>
    <g id="ytick_10">
     <g id="line2d_29">
      <path clip-path="url(#pabf45ffd75)" d="M 90 483.693735 
L 648 483.693735 
" style="fill:none;stroke:#b0b0b0;stroke-linecap:square;stroke-width:0.8;"/>
     </g>
     <g id="line2d_30">
      <g>
       <use style="stroke:#000000;stroke-width:0.8;" x="90" xlink:href="#mebded57211" y="483.693735"/>
      </g>
     </g>
     <g id="text_20">
      <!-- 6 -->
      <g transform="translate(76.6375 487.492954)scale(0.1 -0.1)">
       <use xlink:href="#DejaVuSans-36"/>
      </g>
     </g>
    </g>
    <g id="ytick_11">
     <g id="line2d_31">
      <path clip-path="url(#pabf45ffd75)" d="M 90 434.924981 
L 648 434.924981 
" style="fill:none;stroke:#b0b0b0;stroke-linecap:square;stroke-width:0.8;"/>
     </g>
     <g id="line2d_32">
      <g>
       <use style="stroke:#000000;stroke-width:0.8;" x="90" xlink:href="#mebded57211" y="434.924981"/>
      </g>
     </g>
     <g id="text_21">
      <!-- 8 -->
      <g transform="translate(76.6375 438.724199)scale(0.1 -0.1)">
       <use xlink:href="#DejaVuSans-38"/>
      </g>
     </g>
    </g>
    <g id="ytick_12">
     <g id="line2d_33">
      <path clip-path="url(#pabf45ffd75)" d="M 90 386.156226 
L 648 386.156226 
" style="fill:none;stroke:#b0b0b0;stroke-linecap:square;stroke-width:0.8;"/>
     </g>
     <g id="line2d_34">
      <g>
       <use style="stroke:#000000;stroke-width:0.8;" x="90" xlink:href="#mebded57211" y="386.156226"/>
      </g>
     </g>
     <g id="text_22">
      <!-- 10 -->
      <g transform="translate(70.275 389.955444)scale(0.1 -0.1)">
       <use xlink:href="#DejaVuSans-31"/>
       <use x="63.623047" xlink:href="#DejaVuSans-30"/>
      </g>
     </g>
    </g>
    <g id="text_23">
     <!-- Relative number of pixels for most dominant tree species -->
     <g transform="translate(64.195312 650.056889)rotate(-90)scale(0.1 -0.1)">
      <defs>
       <path d="M 2841 2188 
Q 3044 2119 3236 1894 
Q 3428 1669 3622 1275 
L 4263 0 
L 3584 0 
L 2988 1197 
Q 2756 1666 2539 1819 
Q 2322 1972 1947 1972 
L 1259 1972 
L 1259 0 
L 628 0 
L 628 4666 
L 2053 4666 
Q 2853 4666 3247 4331 
Q 3641 3997 3641 3322 
Q 3641 2881 3436 2590 
Q 3231 2300 2841 2188 
z
M 1259 4147 
L 1259 2491 
L 2053 2491 
Q 2509 2491 2742 2702 
Q 2975 2913 2975 3322 
Q 2975 3731 2742 3939 
Q 2509 4147 2053 4147 
L 1259 4147 
z
" id="DejaVuSans-52" transform="scale(0.015625)"/>
       <path d="M 191 3500 
L 800 3500 
L 1894 563 
L 2988 3500 
L 3597 3500 
L 2284 0 
L 1503 0 
L 191 3500 
z
" id="DejaVuSans-76" transform="scale(0.015625)"/>
      </defs>
      <use xlink:href="#DejaVuSans-52"/>
      <use x="64.982422" xlink:href="#DejaVuSans-65"/>
      <use x="126.505859" xlink:href="#DejaVuSans-6c"/>
      <use x="154.289062" xlink:href="#DejaVuSans-61"/>
      <use x="215.568359" xlink:href="#DejaVuSans-74"/>
      <use x="254.777344" xlink:href="#DejaVuSans-69"/>
      <use x="282.560547" xlink:href="#DejaVuSans-76"/>
      <use x="341.740234" xlink:href="#DejaVuSans-65"/>
      <use x="403.263672" xlink:href="#DejaVuSans-20"/>
      <use x="435.050781" xlink:href="#DejaVuSans-6e"/>
      <use x="498.429688" xlink:href="#DejaVuSans-75"/>
      <use x="561.808594" xlink:href="#DejaVuSans-6d"/>
      <use x="659.220703" xlink:href="#DejaVuSans-62"/>
      <use x="722.697266" xlink:href="#DejaVuSans-65"/>
      <use x="784.220703" xlink:href="#DejaVuSans-72"/>
      <use x="825.333984" xlink:href="#DejaVuSans-20"/>
      <use x="857.121094" xlink:href="#DejaVuSans-6f"/>
      <use x="918.302734" xlink:href="#DejaVuSans-66"/>
      <use x="953.507812" xlink:href="#DejaVuSans-20"/>
      <use x="985.294922" xlink:href="#DejaVuSans-70"/>
      <use x="1048.771484" xlink:href="#DejaVuSans-69"/>
      <use x="1076.554688" xlink:href="#DejaVuSans-78"/>
      <use x="1132.609375" xlink:href="#DejaVuSans-65"/>
      <use x="1194.132812" xlink:href="#DejaVuSans-6c"/>
      <use x="1221.916016" xlink:href="#DejaVuSans-73"/>
      <use x="1274.015625" xlink:href="#DejaVuSans-20"/>
      <use x="1305.802734" xlink:href="#DejaVuSans-66"/>
      <use x="1341.007812" xlink:href="#DejaVuSans-6f"/>
      <use x="1402.189453" xlink:href="#DejaVuSans-72"/>
      <use x="1443.302734" xlink:href="#DejaVuSans-20"/>
      <use x="1475.089844" xlink:href="#DejaVuSans-6d"/>
      <use x="1572.501953" xlink:href="#DejaVuSans-6f"/>
      <use x="1633.683594" xlink:href="#DejaVuSans-73"/>
      <use x="1685.783203" xlink:href="#DejaVuSans-74"/>
      <use x="1724.992188" xlink:href="#DejaVuSans-20"/>
      <use x="1756.779297" xlink:href="#DejaVuSans-64"/>
      <use x="1820.255859" xlink:href="#DejaVuSans-6f"/>
      <use x="1881.4375" xlink:href="#DejaVuSans-6d"/>
      <use x="1978.849609" xlink:href="#DejaVuSans-69"/>
      <use x="2006.632812" xlink:href="#DejaVuSans-6e"/>
      <use x="2070.011719" xlink:href="#DejaVuSans-61"/>
      <use x="2131.291016" xlink:href="#DejaVuSans-6e"/>
      <use x="2194.669922" xlink:href="#DejaVuSans-74"/>
      <use x="2233.878906" xlink:href="#DejaVuSans-20"/>
      <use x="2265.666016" xlink:href="#DejaVuSans-74"/>
      <use x="2304.875" xlink:href="#DejaVuSans-72"/>
      <use x="2343.738281" xlink:href="#DejaVuSans-65"/>
      <use x="2405.261719" xlink:href="#DejaVuSans-65"/>
      <use x="2466.785156" xlink:href="#DejaVuSans-20"/>
      <use x="2498.572266" xlink:href="#DejaVuSans-73"/>
      <use x="2550.671875" xlink:href="#DejaVuSans-70"/>
      <use x="2614.148438" xlink:href="#DejaVuSans-65"/>
      <use x="2675.671875" xlink:href="#DejaVuSans-63"/>
      <use x="2730.652344" xlink:href="#DejaVuSans-69"/>
      <use x="2758.435547" xlink:href="#DejaVuSans-65"/>
      <use x="2819.958984" xlink:href="#DejaVuSans-73"/>
     </g>
    </g>
   </g>
   <g id="patch_42">
    <path d="M 90 630 
L 90 382.909091 
" style="fill:none;stroke:#000000;stroke-linecap:square;stroke-linejoin:miter;stroke-width:0.8;"/>
   </g>
   <g id="patch_43">
    <path d="M 648 630 
L 648 382.909091 
" style="fill:none;stroke:#000000;stroke-linecap:square;stroke-linejoin:miter;stroke-width:0.8;"/>
   </g>
   <g id="patch_44">
    <path d="M 90 630 
L 648 630 
" style="fill:none;stroke:#000000;stroke-linecap:square;stroke-linejoin:miter;stroke-width:0.8;"/>
   </g>
   <g id="patch_45">
    <path d="M 90 382.909091 
L 648 382.909091 
" style="fill:none;stroke:#000000;stroke-linecap:square;stroke-linejoin:miter;stroke-width:0.8;"/>
   </g>
   <g id="legend_2">
    <g id="patch_46">
     <path d="M 521.926563 434.943466 
L 641 434.943466 
Q 643 434.943466 643 432.943466 
L 643 389.909091 
Q 643 387.909091 641 387.909091 
L 521.926563 387.909091 
Q 519.926563 387.909091 519.926563 389.909091 
L 519.926563 432.943466 
Q 519.926563 434.943466 521.926563 434.943466 
z
" style="fill:#ffffff;opacity:0.8;stroke:#cccccc;stroke-linejoin:miter;"/>
    </g>
    <g id="patch_47">
     <path d="M 523.926563 399.507528 
L 543.926563 399.507528 
L 543.926563 392.507528 
L 523.926563 392.507528 
z
" style="fill:#00224e;"/>
    </g>
    <g id="text_24">
     <!-- Area of Interest 0 -->
     <g transform="translate(551.926563 399.507528)scale(0.1 -0.1)">
      <use xlink:href="#DejaVuSans-41"/>
      <use x="68.408203" xlink:href="#DejaVuSans-72"/>
      <use x="107.271484" xlink:href="#DejaVuSans-65"/>
      <use x="168.794922" xlink:href="#DejaVuSans-61"/>
      <use x="230.074219" xlink:href="#DejaVuSans-20"/>
      <use x="261.861328" xlink:href="#DejaVuSans-6f"/>
      <use x="323.042969" xlink:href="#DejaVuSans-66"/>
      <use x="358.248047" xlink:href="#DejaVuSans-20"/>
      <use x="390.035156" xlink:href="#DejaVuSans-49"/>
      <use x="419.527344" xlink:href="#DejaVuSans-6e"/>
      <use x="482.90625" xlink:href="#DejaVuSans-74"/>
      <use x="522.115234" xlink:href="#DejaVuSans-65"/>
      <use x="583.638672" xlink:href="#DejaVuSans-72"/>
      <use x="622.501953" xlink:href="#DejaVuSans-65"/>
      <use x="684.025391" xlink:href="#DejaVuSans-73"/>
      <use x="736.125" xlink:href="#DejaVuSans-74"/>
      <use x="775.333984" xlink:href="#DejaVuSans-20"/>
      <use x="807.121094" xlink:href="#DejaVuSans-30"/>
     </g>
    </g>
    <g id="patch_48">
     <path d="M 523.926563 414.185653 
L 543.926563 414.185653 
L 543.926563 407.185653 
L 523.926563 407.185653 
z
" style="fill:#273e6e;"/>
    </g>
    <g id="text_25">
     <!-- Area of Interest 1 -->
     <g transform="translate(551.926563 414.185653)scale(0.1 -0.1)">
      <use xlink:href="#DejaVuSans-41"/>
      <use x="68.408203" xlink:href="#DejaVuSans-72"/>
      <use x="107.271484" xlink:href="#DejaVuSans-65"/>
      <use x="168.794922" xlink:href="#DejaVuSans-61"/>
      <use x="230.074219" xlink:href="#DejaVuSans-20"/>
      <use x="261.861328" xlink:href="#DejaVuSans-6f"/>
      <use x="323.042969" xlink:href="#DejaVuSans-66"/>
      <use x="358.248047" xlink:href="#DejaVuSans-20"/>
      <use x="390.035156" xlink:href="#DejaVuSans-49"/>
      <use x="419.527344" xlink:href="#DejaVuSans-6e"/>
      <use x="482.90625" xlink:href="#DejaVuSans-74"/>
      <use x="522.115234" xlink:href="#DejaVuSans-65"/>
      <use x="583.638672" xlink:href="#DejaVuSans-72"/>
      <use x="622.501953" xlink:href="#DejaVuSans-65"/>
      <use x="684.025391" xlink:href="#DejaVuSans-73"/>
      <use x="736.125" xlink:href="#DejaVuSans-74"/>
      <use x="775.333984" xlink:href="#DejaVuSans-20"/>
      <use x="807.121094" xlink:href="#DejaVuSans-31"/>
     </g>
    </g>
    <g id="patch_49">
     <path d="M 523.926563 428.863778 
L 543.926563 428.863778 
L 543.926563 421.863778 
L 523.926563 421.863778 
z
" style="fill:#535a6d;"/>
    </g>
    <g id="text_26">
     <!-- Area of Interest 2 -->
     <g transform="translate(551.926563 428.863778)scale(0.1 -0.1)">
      <use xlink:href="#DejaVuSans-41"/>
      <use x="68.408203" xlink:href="#DejaVuSans-72"/>
      <use x="107.271484" xlink:href="#DejaVuSans-65"/>
      <use x="168.794922" xlink:href="#DejaVuSans-61"/>
      <use x="230.074219" xlink:href="#DejaVuSans-20"/>
      <use x="261.861328" xlink:href="#DejaVuSans-6f"/>
      <use x="323.042969" xlink:href="#DejaVuSans-66"/>
      <use x="358.248047" xlink:href="#DejaVuSans-20"/>
      <use x="390.035156" xlink:href="#DejaVuSans-49"/>
      <use x="419.527344" xlink:href="#DejaVuSans-6e"/>
      <use x="482.90625" xlink:href="#DejaVuSans-74"/>
      <use x="522.115234" xlink:href="#DejaVuSans-65"/>
      <use x="583.638672" xlink:href="#DejaVuSans-72"/>
      <use x="622.501953" xlink:href="#DejaVuSans-65"/>
      <use x="684.025391" xlink:href="#DejaVuSans-73"/>
      <use x="736.125" xlink:href="#DejaVuSans-74"/>
      <use x="775.333984" xlink:href="#DejaVuSans-20"/>
      <use x="807.121094" xlink:href="#DejaVuSans-32"/>
     </g>
    </g>
   </g>
  </g>
  <g id="text_27">
   <!-- Most Dominant Tree Species in areas of interest in 2019 -->
   <g transform="translate(191.9775 23.518125)scale(0.12 -0.12)">
    <defs>
     <path d="M 1259 4147 
L 1259 519 
L 2022 519 
Q 2988 519 3436 956 
Q 3884 1394 3884 2338 
Q 3884 3275 3436 3711 
Q 2988 4147 2022 4147 
L 1259 4147 
z
M 628 4666 
L 1925 4666 
Q 3281 4666 3915 4102 
Q 4550 3538 4550 2338 
Q 4550 1131 3912 565 
Q 3275 0 1925 0 
L 628 0 
L 628 4666 
z
" id="DejaVuSans-44" transform="scale(0.015625)"/>
     <path d="M 703 97 
L 703 672 
Q 941 559 1184 500 
Q 1428 441 1663 441 
Q 2288 441 2617 861 
Q 2947 1281 2994 2138 
Q 2813 1869 2534 1725 
Q 2256 1581 1919 1581 
Q 1219 1581 811 2004 
Q 403 2428 403 3163 
Q 403 3881 828 4315 
Q 1253 4750 1959 4750 
Q 2769 4750 3195 4129 
Q 3622 3509 3622 2328 
Q 3622 1225 3098 567 
Q 2575 -91 1691 -91 
Q 1453 -91 1209 -44 
Q 966 3 703 97 
z
M 1959 2075 
Q 2384 2075 2632 2365 
Q 2881 2656 2881 3163 
Q 2881 3666 2632 3958 
Q 2384 4250 1959 4250 
Q 1534 4250 1286 3958 
Q 1038 3666 1038 3163 
Q 1038 2656 1286 2365 
Q 1534 2075 1959 2075 
z
" id="DejaVuSans-39" transform="scale(0.015625)"/>
    </defs>
    <use xlink:href="#DejaVuSans-4d"/>
    <use x="86.279297" xlink:href="#DejaVuSans-6f"/>
    <use x="147.460938" xlink:href="#DejaVuSans-73"/>
    <use x="199.560547" xlink:href="#DejaVuSans-74"/>
    <use x="238.769531" xlink:href="#DejaVuSans-20"/>
    <use x="270.556641" xlink:href="#DejaVuSans-44"/>
    <use x="347.558594" xlink:href="#DejaVuSans-6f"/>
    <use x="408.740234" xlink:href="#DejaVuSans-6d"/>
    <use x="506.152344" xlink:href="#DejaVuSans-69"/>
    <use x="533.935547" xlink:href="#DejaVuSans-6e"/>
    <use x="597.314453" xlink:href="#DejaVuSans-61"/>
    <use x="658.59375" xlink:href="#DejaVuSans-6e"/>
    <use x="721.972656" xlink:href="#DejaVuSans-74"/>
    <use x="761.181641" xlink:href="#DejaVuSans-20"/>
    <use x="792.96875" xlink:href="#DejaVuSans-54"/>
    <use x="839.302734" xlink:href="#DejaVuSans-72"/>
    <use x="878.166016" xlink:href="#DejaVuSans-65"/>
    <use x="939.689453" xlink:href="#DejaVuSans-65"/>
    <use x="1001.212891" xlink:href="#DejaVuSans-20"/>
    <use x="1033" xlink:href="#DejaVuSans-53"/>
    <use x="1096.476562" xlink:href="#DejaVuSans-70"/>
    <use x="1159.953125" xlink:href="#DejaVuSans-65"/>
    <use x="1221.476562" xlink:href="#DejaVuSans-63"/>
    <use x="1276.457031" xlink:href="#DejaVuSans-69"/>
    <use x="1304.240234" xlink:href="#DejaVuSans-65"/>
    <use x="1365.763672" xlink:href="#DejaVuSans-73"/>
    <use x="1417.863281" xlink:href="#DejaVuSans-20"/>
    <use x="1449.650391" xlink:href="#DejaVuSans-69"/>
    <use x="1477.433594" xlink:href="#DejaVuSans-6e"/>
    <use x="1540.8125" xlink:href="#DejaVuSans-20"/>
    <use x="1572.599609" xlink:href="#DejaVuSans-61"/>
    <use x="1633.878906" xlink:href="#DejaVuSans-72"/>
    <use x="1672.742188" xlink:href="#DejaVuSans-65"/>
    <use x="1734.265625" xlink:href="#DejaVuSans-61"/>
    <use x="1795.544922" xlink:href="#DejaVuSans-73"/>
    <use x="1847.644531" xlink:href="#DejaVuSans-20"/>
    <use x="1879.431641" xlink:href="#DejaVuSans-6f"/>
    <use x="1940.613281" xlink:href="#DejaVuSans-66"/>
    <use x="1975.818359" xlink:href="#DejaVuSans-20"/>
    <use x="2007.605469" xlink:href="#DejaVuSans-69"/>
    <use x="2035.388672" xlink:href="#DejaVuSans-6e"/>
    <use x="2098.767578" xlink:href="#DejaVuSans-74"/>
    <use x="2137.976562" xlink:href="#DejaVuSans-65"/>
    <use x="2199.5" xlink:href="#DejaVuSans-72"/>
    <use x="2238.363281" xlink:href="#DejaVuSans-65"/>
    <use x="2299.886719" xlink:href="#DejaVuSans-73"/>
    <use x="2351.986328" xlink:href="#DejaVuSans-74"/>
    <use x="2391.195312" xlink:href="#DejaVuSans-20"/>
    <use x="2422.982422" xlink:href="#DejaVuSans-69"/>
    <use x="2450.765625" xlink:href="#DejaVuSans-6e"/>
    <use x="2514.144531" xlink:href="#DejaVuSans-20"/>
    <use x="2545.931641" xlink:href="#DejaVuSans-32"/>
    <use x="2609.554688" xlink:href="#DejaVuSans-30"/>
    <use x="2673.177734" xlink:href="#DejaVuSans-31"/>
    <use x="2736.800781" xlink:href="#DejaVuSans-39"/>
   </g>
  </g>
 </g>
 <defs>
  <clipPath id="pda5e5f0312">
   <rect height="247.090909" width="558" x="90" y="86.4"/>
  </clipPath>
  <clipPath id="pabf45ffd75">
   <rect height="247.090909" width="558" x="90" y="382.909091"/>
  </clipPath>
 </defs>
</svg>
